<?xml version="1.0" encoding="UTF-8"?>
<svg id="Layer_1" xmlns="http://www.w3.org/2000/svg" viewBox="0 0 1180.18 368.39">
  <defs>
    <style>
      .cls-1 {
        fill: #002e6d;
      }
    </style>
  </defs>
  <g>
    <rect class="cls-1" x="343.69" y="152.4" width="492.79" height="61.6"/>
    <rect class="cls-1" x="343.69" width="98.56" height="61.58"/>
    <rect class="cls-1" x="540.81" width="98.56" height="61.58"/>
    <rect class="cls-1" x="737.92" width="98.56" height="61.58"/>
    <rect class="cls-1" x="343.69" y="76.23" width="237.91" height="61.54"/>
    <rect class="cls-1" x="598.57" y="76.23" width="237.91" height="61.54"/>
  </g>
  <g>
    <polygon class="cls-1" points="407.98 368.39 405.73 368.39 405.73 294.71 407.98 294.71 407.98 368.39 407.98 368.39"/>
    <g>
      <g>
        <path class="cls-1" d="M846.12,343.57h2.58c4.33,9.67,9.83,14.5,16.75,14.5,8.33,0,11.75-5.66,11.75-10.58,0-6.17-4.42-8.41-14.5-12-7.58-2.66-15.58-4.91-15.58-15.16s8.16-16.75,18.5-16.75c4.67,0,8,.92,10.66,1.92l2.67-2.33h1.83v16h-2.58c-2.66-7.75-7.41-12.58-13.91-12.58-5.66,0-10.08,3.67-10.08,10.16,0,6,4.83,7.91,13.75,10.91,7.58,2.58,15.41,5.17,15.41,15.5,0,8.25-4.83,17.91-18.66,17.91-4.5,0-9.25-1-12.41-2.33l-4.17,2.67h-2v-17.83Z"/>
        <path class="cls-1" d="M888.28,340.98c0-11.41,7-20.16,17.83-20.16s15.91,9.5,15.25,18.66h-25.58v.67c0,9.17,4.58,15.83,12.75,15.83,4.66,0,8.41-3,11.75-7.08l1.67,1.58c-3.09,5.16-7.42,9.91-15.83,9.91-11.66,0-17.83-8.41-17.83-19.41ZM895.86,336.99l17.91-.42c.84-7.08-2.25-13.16-8.25-13.16-5.08,0-9,3.92-9.67,13.58Z"/>
        <path class="cls-1" d="M926.44,340.98c0-11.58,8-20.16,18.41-20.16,8.75,0,13.25,4.83,13.25,9,0,2.67-1.67,4.75-4.25,4.75-2.83,0-4.42-1.75-4.42-4.25,0-2.25,1.5-3.83,2.67-4.5-1.25-1.17-3.83-2.41-7.08-2.41-6.25,0-11.25,5.16-11.25,15.75,0,9.91,5,16.49,13,16.49,4.25,0,8-2.41,10.83-5.66l1.67,1.58c-3.5,5.08-7.75,8.83-15.25,8.83-10.92,0-17.58-8.33-17.58-19.41Z"/>
        <path class="cls-1" d="M968.11,348.82v-21.25c0-2.58-1.33-3.17-6.17-3.33v-2.58l13.16-.42v24.58c0,7.42,2.92,9.42,8.41,9.42,3.75,0,6.25-1.25,8.75-2.83v-24.83c0-2.58-1.58-3.17-6.17-3.33v-2.58l13.17-.42v32.99c0,2.08,1.25,2.83,6.08,3v2.5h-12.91v-4.83c-4.17,3-8.92,5.5-14.41,5.5-6,0-9.92-4.08-9.92-11.58Z"/>
        <path class="cls-1" d="M1009.03,357.15c4.83-.08,6.08-.92,6.08-2.92v-25.91c0-2.5-1.25-4-6.08-4.08v-2.58l12.91-.33v6.5c2.92-3.67,6.75-6.75,11.08-6.75s6.17,2.92,6.17,5.75c0,2.66-1.75,4.75-4.33,4.75s-4.58-1.5-4.58-4.33c0-.42.08-.92.17-1.42-3.75-.17-6.67,2.42-8.33,4.83v23.58c0,2,1.5,2.83,7,2.92v2.58h-20.07v-2.58Z"/>
        <path class="cls-1" d="M1042.53,357.15c4.83-.08,6.08-.92,6.08-2.92v-25.91c0-2.5-1.17-4-6-4.08v-2.58l13-.33v32.91c0,2,1.17,2.83,6.08,2.92v2.58h-19.16v-2.58ZM1047.19,306.99c0-2.92,1.91-5.08,4.75-5.08s4.75,2,4.75,4.92-1.91,5-4.75,5-4.75-1.92-4.75-4.83Z"/>
        <path class="cls-1" d="M1069.19,349.98v-24.66h-7.08v-2.33l7.25-1.5v-10.66l6.83-3v13.83h12.08v3.5h-12.08v23.91c0,4.58,1.67,6.75,5.17,6.75,2.33,0,4.16-1.75,6.08-4.5l1.92,1.33c-3.08,5.58-5.92,7.75-11.25,7.75s-8.92-3.42-8.92-10.41Z"/>
        <path class="cls-1" d="M1092.94,357.15c4.83-.08,6.08-.92,6.08-2.92v-25.91c0-2.5-1.17-4-6-4.08v-2.58l13-.33v32.91c0,2,1.17,2.83,6.08,2.92v2.58h-19.16v-2.58ZM1097.6,306.99c0-2.92,1.92-5.08,4.75-5.08s4.75,2,4.75,4.92-1.91,5-4.75,5-4.75-1.92-4.75-4.83Z"/>
        <path class="cls-1" d="M1113.77,340.98c0-11.41,7-20.16,17.83-20.16s15.91,9.5,15.25,18.66h-25.57v.67c0,9.17,4.58,15.83,12.74,15.83,4.67,0,8.41-3,11.75-7.08l1.67,1.58c-3.08,5.16-7.41,9.91-15.83,9.91-11.67,0-17.83-8.41-17.83-19.41ZM1121.35,336.99l17.91-.42c.83-7.08-2.25-13.16-8.25-13.16-5.08,0-9,3.92-9.66,13.58Z"/>
        <path class="cls-1" d="M1153.19,347.65h2.41c3.75,6.17,7.67,10.16,12.5,10.16,4.5,0,6.84-3.08,6.84-6.33,0-3.92-2.34-5.5-9.92-7.83-8.41-2.5-11.41-5.42-11.41-10.66,0-7.25,5.16-12.16,13.41-12.16,2.67,0,6.08,1,7.92,2.17l1.5-2.17h1.92v11.33h-2.42c-2.66-5.16-5.83-8.75-9.91-8.75s-6.67,2.58-6.67,6.25c0,3.42,2.83,5.16,9.5,7.08,7.91,2.25,11.33,5.16,11.33,10.83,0,7-4.42,12.83-12.91,12.83-3.09,0-7.41-1.33-9.66-2.66l-2.5,2.66h-1.91v-12.75Z"/>
      </g>
      <g>
        <path class="cls-1" d="M515.67,358.03c7.56-.25,9.24-1.68,9.24-4.79v-43.49c0-3.1-1.68-4.62-9.24-4.87v-1.85h26.45v1.85c-7.56.25-9.24,1.76-9.24,4.87v43.49c0,3.11,1.68,4.54,9.24,4.79v1.93h-26.45v-1.93Z"/>
        <path class="cls-1" d="M559.92,358.03c7.47-.25,9.74-1.68,9.74-4.79v-47.86h-4.2c-7.05,0-10.66.04-14.78,10.37l-1.85-.17.5-12.55h48.53l.59,12.55-1.85.17c-3.78-9.66-7.47-10.37-14.78-10.37h-4.28v47.86c0,3.11,2.27,4.54,9.74,4.79v1.93h-27.37v-1.93Z"/>
        <path class="cls-1" d="M710.65,358.03c7.3-.25,9.15-1.68,9.15-4.79v-43.49c0-3.1-1.85-4.62-9.15-4.87v-1.85h46.18l.25,12.53-1.85.08c-3.53-10.16-6.38-10.18-15.96-10.18h-11.5v23.76h5.12c6.63,0,9.57-1.51,11.75-10.5h1.68v23.34h-1.68c-2.18-8.98-5.12-10.41-11.75-10.41h-5.12v25.4h11.5c11.25,0,15.03.3,18.72-10.45l1.85.09-.42,13.25h-48.78v-1.93Z"/>
        <path class="cls-1" d="M768.42,358.03c7.3-.25,9.15-1.68,9.15-4.79v-43.49c0-3.1-1.85-4.62-9.15-4.87v-1.85h25.86v1.85c-7.47.25-8.73,1.68-8.73,4.87v47.32h8.4c11.08,0,15.03-3.32,19.06-15.58l1.85.08-.67,18.39h-45.76v-1.93Z"/>
        <path class="cls-1" d="M675.87,303.04h-22.79v1.93c6.1.4,7.76,1.89,7.76,4.79v43.49c0,2.89-1.66,4.31-7.76,4.7v2.02h23.54c21.16,0,30.31-14.19,30.31-29.47s-10.5-27.45-31.07-27.45ZM675.03,357.16h-6.21v-51.77h6.13c15.28,0,22.84,6.64,22.84,25.61s-4.87,26.16-22.75,26.16Z"/>
        <path class="cls-1" d="M642.54,350.4l-17.8-48.7h-2.85l-17.47,43.75c-3.36,8.31-5.71,11.42-11.33,12.76v1.76h18.89v-1.76c-7.47-1.26-8.31-3.1-4.79-12.26l2.94-7.64h19.56l4.54,13.1c1.68,4.7.5,6.38-7.14,6.8v1.76h23.66v-2.02c-5.06-.93-6.45-2.81-8.21-7.55ZM611.05,335.95l9.24-23.76h.34l8.23,23.76h-17.8Z"/>
        <path class="cls-1" d="M489.48,303.96c-9.91,0-19.14,8.73-19.14,27.87s11.08,25.78,20.74,25.78c2.88,0,5.89-.83,8.41-2.2,2.61-1.43,4.98-3.39,6.67-5.85,1.18-1.72,2.03-3.49,2.79-5.6l1.86.56c-.94,3.04-2.25,6-4.18,8.55-1.85,2.45-4.23,4.49-6.96,5.89-.77.4-1.58.75-2.4,1.04-.91.33-1.85.59-2.8.79-1.83.39-3.78.59-5.66.59-16.21,0-27.62-11.67-27.62-29.22s12.85-30.48,29.22-30.48c5.96,0,10.75,1.59,14.27,3.53l2.94-.03.61,5.49,1.16,9.57h-1.76c-3.86-10.41-9.66-16.29-18.14-16.29h0Z"/>
      </g>
      <g>
        <path class="cls-1" d="M54.49,358.03c7.56-.25,9.24-1.68,9.24-4.79v-43.49c0-3.1-1.68-4.62-9.24-4.87v-1.85h26.45v1.85c-7.56.25-9.24,1.76-9.24,4.87v43.49c0,3.11,1.68,4.54,9.24,4.79v1.93h-26.45v-1.93Z"/>
        <path class="cls-1" d="M98.74,358.03c7.47-.25,9.74-1.68,9.74-4.79v-47.86h-4.2c-7.05,0-10.66.04-14.78,10.37l-1.85-.17.5-12.55h48.53l.59,12.55-1.85.17c-3.78-9.66-7.47-10.37-14.78-10.37h-4.28v47.86c0,3.11,2.27,4.54,9.74,4.79v1.93h-27.37v-1.93Z"/>
        <path class="cls-1" d="M249.47,358.03c7.3-.25,9.15-1.68,9.15-4.79v-43.49c0-3.1-1.85-4.62-9.15-4.87v-1.85h46.18l.25,12.53-1.85.08c-3.53-10.16-6.38-10.18-15.96-10.18h-11.5v23.76h5.12c6.63,0,9.57-1.51,11.75-10.5h1.68v23.34h-1.68c-2.18-8.98-5.12-10.41-11.75-10.41h-5.12v25.4h11.5c11.25,0,15.03.3,18.72-10.45l1.85.09-.42,13.25h-48.78v-1.93Z"/>
        <path class="cls-1" d="M307.24,358.03c7.3-.25,9.15-1.68,9.15-4.79v-43.49c0-3.1-1.85-4.62-9.15-4.87v-1.85h25.86v1.85c-7.47.25-8.73,1.68-8.73,4.87v47.32h8.4c11.08,0,15.03-3.32,19.06-15.58l1.85.08-.67,18.39h-45.76v-1.93Z"/>
        <path class="cls-1" d="M214.69,303.04h-22.79v1.93c6.1.4,7.76,1.89,7.76,4.79v43.49c0,2.89-1.66,4.31-7.76,4.7v2.02h23.54c21.16,0,30.31-14.19,30.31-29.47s-10.5-27.45-31.07-27.45ZM213.85,357.16h-6.21v-51.77h6.13c15.28,0,22.84,6.64,22.84,25.61s-4.87,26.16-22.75,26.16Z"/>
        <path class="cls-1" d="M181.36,350.4l-17.8-48.7h-2.85l-17.47,43.75c-3.36,8.31-5.71,11.42-11.33,12.76v1.76h18.89v-1.76c-7.47-1.26-8.31-3.1-4.79-12.26l2.94-7.64h19.56l4.54,13.1c1.68,4.7.5,6.38-7.14,6.8v1.76h23.66v-2.02c-5.06-.93-6.45-2.81-8.21-7.55ZM149.87,335.95l9.24-23.76h.34l8.23,23.76h-17.8Z"/>
        <path class="cls-1" d="M28.3,303.96c-9.91,0-19.14,8.73-19.14,27.87s11.08,25.78,20.74,25.78c2.88,0,5.89-.83,8.41-2.2,2.61-1.43,4.98-3.39,6.67-5.85,1.18-1.72,2.03-3.49,2.79-5.6l1.86.56c-.94,3.04-2.25,6-4.18,8.55-1.85,2.45-4.23,4.49-6.96,5.89-.77.4-1.58.75-2.4,1.04-.91.33-1.85.59-2.8.79-1.83.39-3.78.59-5.66.59-16.21,0-27.62-11.67-27.62-29.22s12.85-30.48,29.22-30.48c5.96,0,10.75,1.59,14.27,3.53l2.94-.03.61,5.49,1.16,9.57h-1.76c-3.86-10.41-9.66-16.29-18.14-16.29h0Z"/>
      </g>
    </g>
  </g>
</svg>